<svg width="20" height="21" viewBox="0 0 20 21" fill="none" xmlns="http://www.w3.org/2000/svg">
<path d="M6 3.3244C4.34315 3.3244 3 4.66755 3 6.3244V14.3244C3 15.9813 4.34315 17.3244 6 17.3244H14C15.6569 17.3244 17 15.9813 17 14.3244V6.3244C17 4.66755 15.6569 3.3244 14 3.3244H6ZM4 6.3244C4 5.21983 4.89543 4.3244 6 4.3244H14C15.1046 4.3244 16 5.21983 16 6.3244V14.3244C16 15.429 15.1046 16.3244 14 16.3244H6C4.89543 16.3244 4 15.429 4 14.3244V6.3244ZM10.5 6.82462C10.5 6.54847 10.2761 6.32462 10 6.32462C9.72386 6.32462 9.5 6.54847 9.5 6.82462V9.82462H6.5C6.22386 9.82462 6 10.0485 6 10.3246C6 10.6008 6.22386 10.8246 6.5 10.8246H9.5V13.8246C9.5 14.1008 9.72386 14.3246 10 14.3246C10.2761 14.3246 10.5 14.1008 10.5 13.8246V10.8246H13.5C13.7761 10.8246 14 10.6008 14 10.3246C14 10.0485 13.7761 9.82462 13.5 9.82462H10.5V6.82462Z" fill="#2A2A2A"/>
</svg>
