<svg width="54" height="54" viewBox="0 0 54 54" fill="none" xmlns="http://www.w3.org/2000/svg">
<g id="face_retouching_off">
<g id="Vector">
<path d="M20.4556 31.544C21.9897 31.544 23.2333 30.3003 23.2333 28.7662C23.2333 27.2321 21.9897 25.9884 20.4556 25.9884C18.9214 25.9884 17.6778 27.2321 17.6778 28.7662C17.6778 30.3003 18.9214 31.544 20.4556 31.544Z" fill="#C1C1C1"/>
<path d="M39.3444 22.0996C41.0111 22.0996 42.6111 21.8996 44.1667 21.5662C44.6333 23.144 44.9 24.8107 44.9 26.544C44.9 29.2551 44.2778 31.8107 43.1889 34.0996L46.5 37.4107C48.3 34.1884 49.3445 30.4996 49.3445 26.544C49.3445 14.2773 39.3889 4.32178 27.1222 4.32178C23.1667 4.32178 19.4778 5.36622 16.2556 7.16622L28.1 19.0107C31.4111 20.9662 35.2333 22.0996 39.3444 22.0996ZM24.1445 9.03289C25.1 8.87733 26.1 8.76622 27.1222 8.76622C33.5667 8.76622 39.2111 12.2329 42.3222 17.3884C41.3667 17.544 40.3667 17.6551 39.3444 17.6551C32.9 17.6551 27.2556 14.1884 24.1445 9.03289Z" fill="#C1C1C1"/>
<path d="M4.65556 8.144L9.52223 13.0107C6.63334 16.7662 4.90001 21.4551 4.90001 26.544C4.90001 38.8107 14.8556 48.7662 27.1222 48.7662C32.2111 48.7662 36.9 47.0329 40.6556 44.144L45.5222 49.0107L48.6556 45.8773L7.81112 5.01067L4.65556 8.144ZM37.4778 40.9662C34.5667 43.0773 30.9889 44.3218 27.1222 44.3218C17.3222 44.3218 9.34445 36.344 9.34445 26.544C9.34445 26.4329 9.36667 26.3218 9.34445 26.2329C12.4333 25.0773 15.1889 23.2329 17.4333 20.9218L37.4778 40.9662ZM14.3 17.7884C13.1222 19.0107 11.7667 20.0773 10.2778 20.9218C10.8556 19.2107 11.6778 17.6329 12.7 16.1884L14.3 17.7884Z" fill="#C1C1C1"/>
</g>
</g>
</svg>
