<svg width="29" height="28" viewBox="0 0 29 28" fill="none" xmlns="http://www.w3.org/2000/svg">
<path d="M0.5 14C0.5 6.26801 6.76801 0 14.5 0C22.232 0 28.5 6.26801 28.5 14C28.5 21.732 22.232 28 14.5 28C6.76801 28 0.5 21.732 0.5 14Z" fill="white"/>
<g clip-path="url(#clip0_284_5535)">
<path d="M9.24658 6.00003H12.7108C13.125 6.00003 13.4608 6.33582 13.4608 6.75003C13.4608 7.12972 13.1786 7.44352 12.8126 7.49318L12.7108 7.50003H9.24658C8.05572 7.50003 7.08094 8.42519 7.00177 9.59598L6.99658 9.75003V19.25C6.99658 20.4409 7.92174 21.4157 9.09253 21.4948L9.24658 21.5H18.7473C19.9382 21.5 20.913 20.5749 20.9921 19.4041L20.9973 19.25V18.7522C20.9973 18.338 21.3331 18.0022 21.7473 18.0022C22.127 18.0022 22.4408 18.2844 22.4905 18.6505L22.4973 18.7522V19.25C22.4973 21.2543 20.925 22.8913 18.9465 22.9948L18.7473 23H9.24658C7.24232 23 5.60531 21.4277 5.50178 19.4492L5.49658 19.25V9.75003C5.49658 7.74577 7.06894 6.10876 9.04742 6.00523L9.24658 6.00003H12.7108H9.24658ZM17.0006 8.51988V5.75003C17.0006 5.12606 17.7074 4.78998 18.1876 5.13983L18.2697 5.20877L24.2643 10.9588C24.5441 11.2271 24.5696 11.6581 24.3407 11.9561L24.2644 12.0412L18.2698 17.7931C17.8196 18.2251 17.0877 17.9477 17.0077 17.3589L17.0006 17.2519V14.5266L16.6571 14.5567C14.2574 14.807 11.9574 15.8879 9.74253 17.8174C9.22342 18.2696 8.42029 17.842 8.50567 17.1589C9.17046 11.8393 11.9523 8.90733 16.7012 8.53953L17.0006 8.51988V5.75003V8.51988ZM18.5006 7.50867V9.25003C18.5006 9.66424 18.1648 10 17.7506 10C13.8772 10 11.4766 11.6762 10.4393 15.1572L10.3602 15.4358L10.7124 15.199C12.9489 13.7372 15.2983 13 17.7506 13C18.1303 13 18.4441 13.2822 18.4937 13.6483L18.5006 13.75V15.4928L22.6618 11.5001L18.5006 7.50867Z" fill="#8B8B8B"/>
</g>
<defs>
<clipPath id="clip0_284_5535">
<rect width="20" height="20" fill="white" transform="translate(4.5 4)"/>
</clipPath>
</defs>
</svg>
