<svg width="31" height="31" viewBox="0 0 31 31" fill="none" xmlns="http://www.w3.org/2000/svg">
<g id="Spinner">
<rect id="325" opacity="0.87" x="13.3789" y="10.7197" width="4" height="10" rx="2" transform="rotate(135 13.3789 10.7197)" fill="#3C3C43" fill-opacity="0.6"/>
<rect id="270" opacity="0.75" x="10.5" y="13.6694" width="4" height="10" rx="2" transform="rotate(90 10.5 13.6694)" fill="#3C3C43" fill-opacity="0.6"/>
<rect id="225" opacity="0.63" x="10.5508" y="17.7907" width="4" height="10" rx="2" transform="rotate(45 10.5508 17.7907)" fill="#3C3C43" fill-opacity="0.6"/>
<rect id="180" opacity="0.51" x="13.5" y="20.6694" width="4" height="10" rx="2" fill="#3C3C43" fill-opacity="0.6"/>
<rect id="135" opacity="0.39" x="27.5234" y="24.8618" width="4" height="10" rx="2" transform="rotate(135 27.5234 24.8618)" fill="#3C3C43" fill-opacity="0.6"/>
<rect id="90" opacity="0.27" x="30.5" y="13.6694" width="4" height="10" rx="2" transform="rotate(90 30.5 13.6694)" fill="#3C3C43" fill-opacity="0.6"/>
<rect id="45" opacity="0.15" x="24.6953" y="3.64865" width="4" height="10" rx="2" transform="rotate(45 24.6953 3.64865)" fill="#3C3C43" fill-opacity="0.6"/>
<rect id="0" x="13.5" y="0.669403" width="4" height="10" rx="2" fill="#3C3C43" fill-opacity="0.6"/>
</g>
</svg>
